<svg width="1120" height="128" viewBox="0 0 1120 128" fill="none" xmlns="http://www.w3.org/2000/svg">
<rect width="160" height="128" rx="15" fill="#EDEDED"/>
<g clip-path="url(#clip0_248_2041)">
<path d="M89.375 29.25H70.625C69.3306 29.25 68.2812 30.2993 68.2812 31.5938V64.4062C68.2812 65.7007 69.3306 66.75 70.625 66.75H89.375C90.6694 66.75 91.7188 65.7007 91.7188 64.4062V31.5938C91.7188 30.2993 90.6694 29.25 89.375 29.25Z" stroke="black" stroke-width="2" stroke-linecap="round" stroke-linejoin="round"/>
<path d="M78 30H82.6875" stroke="black" stroke-width="3" stroke-linecap="round" stroke-linejoin="round"/>
<path d="M80 61.7188V61.7404" stroke="black" stroke-width="2.5" stroke-linecap="round" stroke-linejoin="round"/>
<line x1="69" y1="58" x2="91" y2="58" stroke="black" stroke-width="2"/>
</g>
<path d="M52.7628 98V86.3636H56.9105C57.8158 86.3636 58.5658 86.5284 59.1605 86.858C59.7552 87.1875 60.2003 87.6383 60.4957 88.2102C60.7912 88.7784 60.9389 89.4186 60.9389 90.1307C60.9389 90.8466 60.7893 91.4905 60.4901 92.0625C60.1946 92.6307 59.7476 93.0814 59.1491 93.4148C58.5545 93.7443 57.8063 93.9091 56.9048 93.9091H54.0526V92.4205H56.7457C57.3177 92.4205 57.7817 92.322 58.1378 92.125C58.4938 91.9242 58.7552 91.6515 58.9219 91.3068C59.0885 90.9621 59.1719 90.5701 59.1719 90.1307C59.1719 89.6913 59.0885 89.3011 58.9219 88.9602C58.7552 88.6193 58.492 88.3523 58.1321 88.1591C57.776 87.9659 57.3063 87.8693 56.723 87.8693H54.5185V98H52.7628ZM64.5597 92.8182V98H62.8608V86.3636H64.5369V90.6932H64.6449C64.8494 90.2235 65.1619 89.8504 65.5824 89.5739C66.0028 89.2973 66.5521 89.1591 67.2301 89.1591C67.8286 89.1591 68.3513 89.2822 68.7983 89.5284C69.2491 89.7746 69.5975 90.142 69.8438 90.6307C70.0938 91.1155 70.2188 91.7216 70.2188 92.4489V98H68.5199V92.6534C68.5199 92.0133 68.3551 91.517 68.0256 91.1648C67.696 90.8087 67.2377 90.6307 66.6506 90.6307C66.2491 90.6307 65.8892 90.7159 65.571 90.8864C65.2566 91.0568 65.0085 91.3068 64.8267 91.6364C64.6487 91.9621 64.5597 92.3561 64.5597 92.8182ZM76.1619 98.1761C75.3438 98.1761 74.6297 97.9886 74.0199 97.6136C73.41 97.2386 72.9366 96.714 72.5994 96.0398C72.2623 95.3655 72.0938 94.5777 72.0938 93.6761C72.0938 92.7708 72.2623 91.9792 72.5994 91.3011C72.9366 90.6231 73.41 90.0966 74.0199 89.7216C74.6297 89.3466 75.3438 89.1591 76.1619 89.1591C76.9801 89.1591 77.6941 89.3466 78.304 89.7216C78.9138 90.0966 79.3873 90.6231 79.7244 91.3011C80.0616 91.9792 80.2301 92.7708 80.2301 93.6761C80.2301 94.5777 80.0616 95.3655 79.7244 96.0398C79.3873 96.714 78.9138 97.2386 78.304 97.6136C77.6941 97.9886 76.9801 98.1761 76.1619 98.1761ZM76.1676 96.75C76.6979 96.75 77.1373 96.6098 77.4858 96.3295C77.8343 96.0492 78.0919 95.6761 78.2585 95.2102C78.429 94.7443 78.5142 94.2311 78.5142 93.6705C78.5142 93.1136 78.429 92.6023 78.2585 92.1364C78.0919 91.6667 77.8343 91.2898 77.4858 91.0057C77.1373 90.7216 76.6979 90.5795 76.1676 90.5795C75.6335 90.5795 75.1903 90.7216 74.8381 91.0057C74.4896 91.2898 74.2301 91.6667 74.0597 92.1364C73.893 92.6023 73.8097 93.1136 73.8097 93.6705C73.8097 94.2311 73.893 94.7443 74.0597 95.2102C74.2301 95.6761 74.4896 96.0492 74.8381 96.3295C75.1903 96.6098 75.6335 96.75 76.1676 96.75ZM83.8253 92.8182V98H82.1264V89.2727H83.7571V90.6932H83.8651C84.0658 90.2311 84.3802 89.8598 84.8082 89.5795C85.2401 89.2992 85.7836 89.1591 86.4389 89.1591C87.0336 89.1591 87.5545 89.2841 88.0014 89.5341C88.4484 89.7803 88.795 90.1477 89.0412 90.6364C89.2874 91.125 89.4105 91.7292 89.4105 92.4489V98H87.7116V92.6534C87.7116 92.0208 87.5469 91.5265 87.2173 91.1705C86.8878 90.8106 86.4351 90.6307 85.8594 90.6307C85.4654 90.6307 85.1151 90.7159 84.8082 90.8864C84.5052 91.0568 84.2647 91.3068 84.0866 91.6364C83.9124 91.9621 83.8253 92.3561 83.8253 92.8182ZM95.4503 98.1761C94.5904 98.1761 93.8499 97.9924 93.2287 97.625C92.6113 97.2538 92.134 96.733 91.7969 96.0625C91.4635 95.3883 91.2969 94.5985 91.2969 93.6932C91.2969 92.7992 91.4635 92.0114 91.7969 91.3295C92.134 90.6477 92.6037 90.1155 93.206 89.733C93.812 89.3504 94.5204 89.1591 95.331 89.1591C95.8234 89.1591 96.3007 89.2405 96.7628 89.4034C97.2249 89.5663 97.6397 89.822 98.0071 90.1705C98.3745 90.5189 98.6643 90.9716 98.8764 91.5284C99.0885 92.0814 99.1946 92.7538 99.1946 93.5455V94.1477H92.2571V92.875H97.5298C97.5298 92.428 97.4389 92.0322 97.2571 91.6875C97.0753 91.339 96.8196 91.0644 96.4901 90.8636C96.1643 90.6629 95.7817 90.5625 95.3423 90.5625C94.8651 90.5625 94.4484 90.6799 94.0923 90.9148C93.7401 91.1458 93.4673 91.4489 93.2741 91.8239C93.0848 92.1951 92.9901 92.5985 92.9901 93.0341V94.0284C92.9901 94.6117 93.0923 95.108 93.2969 95.517C93.5052 95.9261 93.795 96.2386 94.1662 96.4545C94.5374 96.6667 94.9711 96.7727 95.4673 96.7727C95.7893 96.7727 96.0829 96.7273 96.348 96.6364C96.6132 96.5417 96.8423 96.4015 97.0355 96.2159C97.2287 96.0303 97.3764 95.8011 97.4787 95.5284L99.0866 95.8182C98.9579 96.2917 98.7268 96.7064 98.3935 97.0625C98.0639 97.4148 97.6491 97.6894 97.1491 97.8864C96.6529 98.0795 96.0866 98.1761 95.4503 98.1761ZM107.619 91.4034L106.08 91.6761C106.015 91.4792 105.913 91.2917 105.773 91.1136C105.636 90.9356 105.451 90.7898 105.216 90.6761C104.981 90.5625 104.688 90.5057 104.335 90.5057C103.854 90.5057 103.453 90.6136 103.131 90.8295C102.809 91.0417 102.648 91.3163 102.648 91.6534C102.648 91.9451 102.756 92.1799 102.972 92.358C103.188 92.536 103.536 92.6818 104.017 92.7955L105.403 93.1136C106.206 93.2992 106.805 93.5852 107.199 93.9716C107.593 94.358 107.79 94.8598 107.79 95.4773C107.79 96 107.638 96.4659 107.335 96.875C107.036 97.2803 106.617 97.5985 106.08 97.8295C105.545 98.0606 104.926 98.1761 104.222 98.1761C103.244 98.1761 102.447 97.9678 101.83 97.5511C101.212 97.1307 100.833 96.5341 100.693 95.7614L102.335 95.5114C102.438 95.9394 102.648 96.2633 102.966 96.483C103.284 96.6989 103.699 96.8068 104.21 96.8068C104.767 96.8068 105.212 96.6913 105.545 96.4602C105.879 96.2254 106.045 95.9394 106.045 95.6023C106.045 95.3295 105.943 95.1004 105.739 94.9148C105.538 94.7292 105.229 94.589 104.812 94.4943L103.335 94.1705C102.521 93.9848 101.919 93.6894 101.528 93.2841C101.142 92.8788 100.949 92.3655 100.949 91.7443C100.949 91.2292 101.093 90.7784 101.381 90.392C101.669 90.0057 102.066 89.7045 102.574 89.4886C103.081 89.2689 103.663 89.1591 104.318 89.1591C105.261 89.1591 106.004 89.3636 106.545 89.7727C107.087 90.178 107.445 90.7216 107.619 91.4034Z" fill="black"/>
<rect x="192" width="160" height="128" rx="15" fill="#EDEDED"/>
<g clip-path="url(#clip1_248_2041)">
<path d="M278 36H266C262.686 36 260 38.6863 260 42V54C260 57.3137 262.686 60 266 60H278C281.314 60 284 57.3137 284 54V42C284 38.6863 281.314 36 278 36Z" stroke="black" stroke-width="2" stroke-linecap="round" stroke-linejoin="round"/>
<path d="M266 60V66H278V60" stroke="black" stroke-width="2" stroke-linecap="round" stroke-linejoin="round"/>
<path d="M266 36V30H278V36" stroke="black" stroke-width="2" stroke-linecap="round" stroke-linejoin="round"/>
<line x1="268.714" y1="42" x2="268.714" y2="53" stroke="black" stroke-width="2" stroke-linecap="round"/>
<line x1="272.714" y1="47" x2="272.714" y2="53" stroke="black" stroke-width="2" stroke-linecap="round"/>
<line x1="276.714" y1="45" x2="276.714" y2="53" stroke="black" stroke-width="2" stroke-linecap="round"/>
</g>
<path d="M221.219 89.4205C221.158 88.8826 220.908 88.4659 220.469 88.1705C220.029 87.8712 219.476 87.7216 218.81 87.7216C218.332 87.7216 217.92 87.7973 217.571 87.9489C217.223 88.0966 216.952 88.3011 216.759 88.5625C216.569 88.8201 216.474 89.1136 216.474 89.4432C216.474 89.7197 216.539 89.9583 216.668 90.1591C216.8 90.3598 216.973 90.5284 217.185 90.6648C217.401 90.7973 217.632 90.9091 217.878 91C218.124 91.0871 218.361 91.1591 218.588 91.2159L219.724 91.5114C220.096 91.6023 220.476 91.7254 220.866 91.8807C221.257 92.036 221.618 92.2405 221.952 92.4943C222.285 92.7481 222.554 93.0625 222.759 93.4375C222.967 93.8125 223.071 94.2614 223.071 94.7841C223.071 95.4432 222.901 96.0284 222.56 96.5398C222.223 97.0511 221.732 97.4545 221.088 97.75C220.448 98.0455 219.673 98.1932 218.764 98.1932C217.893 98.1932 217.139 98.0549 216.503 97.7784C215.866 97.5019 215.368 97.1098 215.009 96.6023C214.649 96.0909 214.45 95.4848 214.412 94.7841H216.173C216.207 95.2045 216.344 95.5549 216.582 95.8352C216.825 96.1117 217.134 96.3182 217.509 96.4545C217.887 96.5871 218.302 96.6534 218.753 96.6534C219.249 96.6534 219.69 96.5758 220.077 96.4205C220.467 96.2614 220.774 96.0417 220.997 95.7614C221.221 95.4773 221.332 95.1458 221.332 94.767C221.332 94.4223 221.234 94.1402 221.037 93.9205C220.844 93.7008 220.58 93.5189 220.247 93.375C219.918 93.2311 219.545 93.1042 219.128 92.9943L217.753 92.6193C216.821 92.3655 216.082 91.9924 215.537 91.5C214.995 91.0076 214.724 90.3561 214.724 89.5455C214.724 88.875 214.906 88.2898 215.27 87.7898C215.634 87.2898 216.126 86.9015 216.747 86.625C217.368 86.3447 218.069 86.2045 218.849 86.2045C219.637 86.2045 220.332 86.3428 220.935 86.6193C221.541 86.8958 222.018 87.2765 222.366 87.7614C222.715 88.2424 222.897 88.7955 222.912 89.4205H221.219ZM225.033 98V89.2727H226.663V90.6932H226.771C226.953 90.2121 227.25 89.8371 227.663 89.5682C228.076 89.2955 228.571 89.1591 229.146 89.1591C229.73 89.1591 230.218 89.2955 230.612 89.5682C231.01 89.8409 231.304 90.2159 231.493 90.6932H231.584C231.792 90.2273 232.124 89.8561 232.578 89.5795C233.033 89.2992 233.574 89.1591 234.203 89.1591C234.995 89.1591 235.641 89.4072 236.141 89.9034C236.644 90.3996 236.896 91.1477 236.896 92.1477V98H235.197V92.3068C235.197 91.7159 235.036 91.2879 234.714 91.0227C234.393 90.7576 234.008 90.625 233.561 90.625C233.008 90.625 232.578 90.7955 232.271 91.1364C231.964 91.4735 231.811 91.9072 231.811 92.4375V98H230.118V92.1989C230.118 91.7254 229.97 91.3447 229.675 91.0568C229.379 90.7689 228.995 90.625 228.521 90.625C228.199 90.625 227.902 90.7102 227.629 90.8807C227.36 91.0473 227.143 91.2803 226.976 91.5795C226.813 91.8788 226.732 92.2254 226.732 92.6193V98H225.033ZM241.713 98.1932C241.16 98.1932 240.66 98.0909 240.213 97.8864C239.766 97.678 239.412 97.3769 239.151 96.983C238.893 96.589 238.764 96.1061 238.764 95.5341C238.764 95.0417 238.859 94.6364 239.048 94.3182C239.238 94 239.493 93.7481 239.815 93.5625C240.137 93.3769 240.497 93.2367 240.895 93.142C241.293 93.0473 241.698 92.9754 242.111 92.9261C242.634 92.8655 243.058 92.8163 243.384 92.7784C243.709 92.7367 243.946 92.6705 244.094 92.5795C244.241 92.4886 244.315 92.3409 244.315 92.1364V92.0966C244.315 91.6004 244.175 91.2159 243.895 90.9432C243.618 90.6705 243.205 90.5341 242.656 90.5341C242.084 90.5341 241.634 90.661 241.304 90.9148C240.978 91.1648 240.753 91.4432 240.628 91.75L239.031 91.3864C239.221 90.8561 239.497 90.428 239.861 90.1023C240.228 89.7727 240.651 89.5341 241.128 89.3864C241.605 89.2348 242.107 89.1591 242.634 89.1591C242.982 89.1591 243.351 89.2008 243.741 89.2841C244.135 89.3636 244.503 89.5114 244.844 89.7273C245.188 89.9432 245.471 90.2519 245.69 90.6534C245.91 91.0511 246.02 91.5682 246.02 92.2045V98H244.361V96.8068H244.293C244.183 97.0265 244.018 97.2424 243.798 97.4545C243.579 97.6667 243.296 97.8428 242.952 97.983C242.607 98.1231 242.194 98.1932 241.713 98.1932ZM242.082 96.8295C242.552 96.8295 242.954 96.7367 243.287 96.5511C243.624 96.3655 243.88 96.1231 244.054 95.8239C244.232 95.5208 244.321 95.197 244.321 94.8523V93.7273C244.26 93.7879 244.143 93.8447 243.969 93.8977C243.798 93.947 243.603 93.9905 243.384 94.0284C243.164 94.0625 242.95 94.0947 242.741 94.125C242.533 94.1515 242.359 94.1742 242.219 94.1932C241.889 94.2348 241.588 94.3049 241.315 94.4034C241.046 94.5019 240.83 94.6439 240.668 94.8295C240.509 95.0114 240.429 95.2538 240.429 95.5568C240.429 95.9773 240.584 96.2955 240.895 96.5114C241.205 96.7235 241.601 96.8295 242.082 96.8295ZM248.283 98V89.2727H249.925V90.6591H250.016C250.175 90.1894 250.455 89.8201 250.857 89.5511C251.262 89.2784 251.72 89.142 252.232 89.142C252.338 89.142 252.463 89.1458 252.607 89.1534C252.754 89.161 252.87 89.1705 252.953 89.1818V90.8068C252.885 90.7879 252.764 90.767 252.589 90.7443C252.415 90.7178 252.241 90.7045 252.067 90.7045C251.665 90.7045 251.307 90.7898 250.993 90.9602C250.682 91.1269 250.436 91.3598 250.254 91.6591C250.072 91.9545 249.982 92.2917 249.982 92.6705V98H248.283ZM259.013 89.2727V90.6364H254.246V89.2727H259.013ZM255.524 87.1818H257.223V95.4375C257.223 95.767 257.272 96.0152 257.371 96.1818C257.469 96.3447 257.596 96.4564 257.751 96.517C257.911 96.5739 258.083 96.6023 258.268 96.6023C258.405 96.6023 258.524 96.5928 258.626 96.5739C258.729 96.5549 258.808 96.5398 258.865 96.5284L259.172 97.9318C259.073 97.9697 258.933 98.0076 258.751 98.0455C258.57 98.0871 258.342 98.1098 258.07 98.1136C257.623 98.1212 257.206 98.0417 256.82 97.875C256.433 97.7083 256.121 97.4508 255.882 97.1023C255.643 96.7538 255.524 96.3163 255.524 95.7898V87.1818ZM267.541 98L264.314 86.3636H266.161L268.428 95.375H268.536L270.893 86.3636H272.723L275.081 95.3807H275.189L277.45 86.3636H279.303L276.07 98H274.303L271.854 89.2841H271.763L269.314 98H267.541ZM282.447 98.1932C281.894 98.1932 281.394 98.0909 280.947 97.8864C280.5 97.678 280.146 97.3769 279.885 96.983C279.627 96.589 279.499 96.1061 279.499 95.5341C279.499 95.0417 279.593 94.6364 279.783 94.3182C279.972 94 280.228 93.7481 280.55 93.5625C280.872 93.3769 281.232 93.2367 281.629 93.142C282.027 93.0473 282.432 92.9754 282.845 92.9261C283.368 92.8655 283.792 92.8163 284.118 92.7784C284.444 92.7367 284.68 92.6705 284.828 92.5795C284.976 92.4886 285.05 92.3409 285.05 92.1364V92.0966C285.05 91.6004 284.91 91.2159 284.629 90.9432C284.353 90.6705 283.94 90.5341 283.391 90.5341C282.819 90.5341 282.368 90.661 282.038 90.9148C281.713 91.1648 281.487 91.4432 281.362 91.75L279.766 91.3864C279.955 90.8561 280.232 90.428 280.595 90.1023C280.963 89.7727 281.385 89.5341 281.862 89.3864C282.339 89.2348 282.841 89.1591 283.368 89.1591C283.716 89.1591 284.086 89.2008 284.476 89.2841C284.87 89.3636 285.237 89.5114 285.578 89.7273C285.923 89.9432 286.205 90.2519 286.425 90.6534C286.644 91.0511 286.754 91.5682 286.754 92.2045V98H285.095V96.8068H285.027C284.917 97.0265 284.752 97.2424 284.533 97.4545C284.313 97.6667 284.031 97.8428 283.686 97.983C283.341 98.1231 282.929 98.1932 282.447 98.1932ZM282.817 96.8295C283.286 96.8295 283.688 96.7367 284.021 96.5511C284.358 96.3655 284.614 96.1231 284.788 95.8239C284.966 95.5208 285.055 95.197 285.055 94.8523V93.7273C284.995 93.7879 284.877 93.8447 284.703 93.8977C284.533 93.947 284.338 93.9905 284.118 94.0284C283.898 94.0625 283.684 94.0947 283.476 94.125C283.268 94.1515 283.093 94.1742 282.953 94.1932C282.624 94.2348 282.322 94.3049 282.05 94.4034C281.781 94.5019 281.565 94.6439 281.402 94.8295C281.243 95.0114 281.163 95.2538 281.163 95.5568C281.163 95.9773 281.319 96.2955 281.629 96.5114C281.94 96.7235 282.336 96.8295 282.817 96.8295ZM293.091 89.2727V90.6364H288.324V89.2727H293.091ZM289.602 87.1818H291.301V95.4375C291.301 95.767 291.35 96.0152 291.449 96.1818C291.547 96.3447 291.674 96.4564 291.83 96.517C291.989 96.5739 292.161 96.6023 292.347 96.6023C292.483 96.6023 292.602 96.5928 292.705 96.5739C292.807 96.5549 292.886 96.5398 292.943 96.5284L293.25 97.9318C293.152 97.9697 293.011 98.0076 292.83 98.0455C292.648 98.0871 292.42 98.1098 292.148 98.1136C291.701 98.1212 291.284 98.0417 290.898 97.875C290.511 97.7083 290.199 97.4508 289.96 97.1023C289.722 96.7538 289.602 96.3163 289.602 95.7898V87.1818ZM298.553 98.1761C297.708 98.1761 296.981 97.9848 296.371 97.6023C295.765 97.2159 295.299 96.6837 294.973 96.0057C294.647 95.3277 294.484 94.5511 294.484 93.6761C294.484 92.7898 294.651 92.0076 294.984 91.3295C295.318 90.6477 295.787 90.1155 296.393 89.733C297 89.3504 297.714 89.1591 298.536 89.1591C299.198 89.1591 299.789 89.2822 300.308 89.5284C300.827 89.7708 301.246 90.1117 301.564 90.5511C301.886 90.9905 302.077 91.5038 302.138 92.0909H300.484C300.393 91.6818 300.185 91.3295 299.859 91.0341C299.537 90.7386 299.106 90.5909 298.564 90.5909C298.09 90.5909 297.676 90.7159 297.32 90.9659C296.967 91.2121 296.693 91.5644 296.496 92.0227C296.299 92.4773 296.2 93.0152 296.2 93.6364C296.2 94.2727 296.297 94.822 296.49 95.2841C296.683 95.7462 296.956 96.1042 297.308 96.358C297.664 96.6117 298.083 96.7386 298.564 96.7386C298.886 96.7386 299.178 96.6799 299.439 96.5625C299.704 96.4413 299.926 96.2689 300.104 96.0455C300.286 95.822 300.412 95.553 300.484 95.2386H302.138C302.077 95.803 301.893 96.3068 301.587 96.75C301.28 97.1932 300.869 97.5417 300.354 97.7955C299.842 98.0492 299.242 98.1761 298.553 98.1761ZM305.653 92.8182V98H303.955V86.3636H305.631V90.6932H305.739C305.943 90.2235 306.256 89.8504 306.676 89.5739C307.097 89.2973 307.646 89.1591 308.324 89.1591C308.922 89.1591 309.445 89.2822 309.892 89.5284C310.343 89.7746 310.691 90.142 310.938 90.6307C311.188 91.1155 311.312 91.7216 311.312 92.4489V98H309.614V92.6534C309.614 92.0133 309.449 91.517 309.119 91.1648C308.79 90.8087 308.331 90.6307 307.744 90.6307C307.343 90.6307 306.983 90.7159 306.665 90.8864C306.35 91.0568 306.102 91.3068 305.92 91.6364C305.742 91.9621 305.653 92.3561 305.653 92.8182ZM317.341 98.1761C316.481 98.1761 315.741 97.9924 315.119 97.625C314.502 97.2538 314.025 96.733 313.688 96.0625C313.354 95.3883 313.188 94.5985 313.188 93.6932C313.188 92.7992 313.354 92.0114 313.688 91.3295C314.025 90.6477 314.494 90.1155 315.097 89.733C315.703 89.3504 316.411 89.1591 317.222 89.1591C317.714 89.1591 318.191 89.2405 318.653 89.4034C319.116 89.5663 319.53 89.822 319.898 90.1705C320.265 90.5189 320.555 90.9716 320.767 91.5284C320.979 92.0814 321.085 92.7538 321.085 93.5455V94.1477H314.148V92.875H319.42C319.42 92.428 319.33 92.0322 319.148 91.6875C318.966 91.339 318.71 91.0644 318.381 90.8636C318.055 90.6629 317.672 90.5625 317.233 90.5625C316.756 90.5625 316.339 90.6799 315.983 90.9148C315.631 91.1458 315.358 91.4489 315.165 91.8239C314.975 92.1951 314.881 92.5985 314.881 93.0341V94.0284C314.881 94.6117 314.983 95.108 315.188 95.517C315.396 95.9261 315.686 96.2386 316.057 96.4545C316.428 96.6667 316.862 96.7727 317.358 96.7727C317.68 96.7727 317.973 96.7273 318.239 96.6364C318.504 96.5417 318.733 96.4015 318.926 96.2159C319.119 96.0303 319.267 95.8011 319.369 95.5284L320.977 95.8182C320.848 96.2917 320.617 96.7064 320.284 97.0625C319.955 97.4148 319.54 97.6894 319.04 97.8864C318.544 98.0795 317.977 98.1761 317.341 98.1761ZM329.51 91.4034L327.97 91.6761C327.906 91.4792 327.804 91.2917 327.663 91.1136C327.527 90.9356 327.341 90.7898 327.107 90.6761C326.872 90.5625 326.578 90.5057 326.226 90.5057C325.745 90.5057 325.343 90.6136 325.021 90.8295C324.699 91.0417 324.538 91.3163 324.538 91.6534C324.538 91.9451 324.646 92.1799 324.862 92.358C325.078 92.536 325.427 92.6818 325.908 92.7955L327.294 93.1136C328.097 93.2992 328.696 93.5852 329.089 93.9716C329.483 94.358 329.68 94.8598 329.68 95.4773C329.68 96 329.529 96.4659 329.226 96.875C328.927 97.2803 328.508 97.5985 327.97 97.8295C327.436 98.0606 326.817 98.1761 326.112 98.1761C325.135 98.1761 324.338 97.9678 323.72 97.5511C323.103 97.1307 322.724 96.5341 322.584 95.7614L324.226 95.5114C324.328 95.9394 324.538 96.2633 324.857 96.483C325.175 96.6989 325.589 96.8068 326.101 96.8068C326.658 96.8068 327.103 96.6913 327.436 96.4602C327.769 96.2254 327.936 95.9394 327.936 95.6023C327.936 95.3295 327.834 95.1004 327.629 94.9148C327.429 94.7292 327.12 94.589 326.703 94.4943L325.226 94.1705C324.411 93.9848 323.809 93.6894 323.419 93.2841C323.033 92.8788 322.839 92.3655 322.839 91.7443C322.839 91.2292 322.983 90.7784 323.271 90.392C323.559 90.0057 323.957 89.7045 324.464 89.4886C324.972 89.2689 325.554 89.1591 326.209 89.1591C327.152 89.1591 327.894 89.3636 328.436 89.7727C328.978 90.178 329.336 90.7216 329.51 91.4034Z" fill="black"/>
<rect x="384" width="160" height="128" rx="15" fill="#EDEDED"/>
<g clip-path="url(#clip2_248_2041)">
<path d="M450 38H452C453.061 38 454.078 37.5786 454.828 36.8284C455.579 36.0783 456 35.0609 456 34C456 33.4696 456.211 32.9609 456.586 32.5858C456.961 32.2107 457.47 32 458 32H470C470.53 32 471.039 32.2107 471.414 32.5858C471.789 32.9609 472 33.4696 472 34C472 35.0609 472.421 36.0783 473.172 36.8284C473.922 37.5786 474.939 38 476 38H478C479.061 38 480.078 38.4214 480.828 39.1716C481.579 39.9217 482 40.9391 482 42V60C482 61.0609 481.579 62.0783 480.828 62.8284C480.078 63.5786 479.061 64 478 64H450C448.939 64 447.922 63.5786 447.172 62.8284C446.421 62.0783 446 61.0609 446 60V42C446 40.9391 446.421 39.9217 447.172 39.1716C447.922 38.4214 448.939 38 450 38" stroke="black" stroke-width="2" stroke-linecap="round" stroke-linejoin="round"/>
<path d="M464 56C467.314 56 470 53.3137 470 50C470 46.6863 467.314 44 464 44C460.686 44 458 46.6863 458 50C458 53.3137 460.686 56 464 56Z" stroke="black" stroke-width="2" stroke-linecap="round" stroke-linejoin="round"/>
</g>
<path d="M440.865 90.1477H439.092C439.024 89.7689 438.897 89.4356 438.712 89.1477C438.526 88.8598 438.299 88.6155 438.03 88.4148C437.761 88.214 437.46 88.0625 437.126 87.9602C436.797 87.858 436.446 87.8068 436.075 87.8068C435.405 87.8068 434.804 87.9754 434.274 88.3125C433.748 88.6496 433.331 89.1439 433.024 89.7955C432.721 90.447 432.57 91.2424 432.57 92.1818C432.57 93.1288 432.721 93.928 433.024 94.5795C433.331 95.2311 433.75 95.7235 434.28 96.0568C434.81 96.3902 435.407 96.5568 436.07 96.5568C436.437 96.5568 436.786 96.5076 437.115 96.4091C437.448 96.3068 437.75 96.1572 438.018 95.9602C438.287 95.7633 438.515 95.5227 438.7 95.2386C438.89 94.9508 439.02 94.6212 439.092 94.25L440.865 94.2557C440.77 94.8277 440.587 95.3542 440.314 95.8352C440.045 96.3125 439.698 96.7254 439.274 97.0739C438.854 97.4186 438.373 97.6856 437.831 97.875C437.289 98.0644 436.698 98.1591 436.058 98.1591C435.051 98.1591 434.153 97.9205 433.365 97.4432C432.577 96.9621 431.956 96.2746 431.501 95.3807C431.051 94.4867 430.825 93.4205 430.825 92.1818C430.825 90.9394 431.053 89.8731 431.507 88.983C431.962 88.089 432.583 87.4034 433.371 86.9261C434.159 86.4451 435.054 86.2045 436.058 86.2045C436.676 86.2045 437.251 86.2936 437.786 86.4716C438.323 86.6458 438.806 86.9034 439.234 87.2443C439.662 87.5814 440.017 87.9943 440.297 88.483C440.577 88.9678 440.767 89.5227 440.865 90.1477ZM445.369 98.1932C444.816 98.1932 444.316 98.0909 443.869 97.8864C443.422 97.678 443.068 97.3769 442.807 96.983C442.549 96.589 442.42 96.1061 442.42 95.5341C442.42 95.0417 442.515 94.6364 442.705 94.3182C442.894 94 443.15 93.7481 443.472 93.5625C443.794 93.3769 444.153 93.2367 444.551 93.142C444.949 93.0473 445.354 92.9754 445.767 92.9261C446.29 92.8655 446.714 92.8163 447.04 92.7784C447.366 92.7367 447.602 92.6705 447.75 92.5795C447.898 92.4886 447.972 92.3409 447.972 92.1364V92.0966C447.972 91.6004 447.831 91.2159 447.551 90.9432C447.275 90.6705 446.862 90.5341 446.312 90.5341C445.741 90.5341 445.29 90.661 444.96 90.9148C444.634 91.1648 444.409 91.4432 444.284 91.75L442.688 91.3864C442.877 90.8561 443.153 90.428 443.517 90.1023C443.884 89.7727 444.307 89.5341 444.784 89.3864C445.261 89.2348 445.763 89.1591 446.29 89.1591C446.638 89.1591 447.008 89.2008 447.398 89.2841C447.792 89.3636 448.159 89.5114 448.5 89.7273C448.845 89.9432 449.127 90.2519 449.347 90.6534C449.566 91.0511 449.676 91.5682 449.676 92.2045V98H448.017V96.8068H447.949C447.839 97.0265 447.674 97.2424 447.455 97.4545C447.235 97.6667 446.953 97.8428 446.608 97.983C446.263 98.1231 445.85 98.1932 445.369 98.1932ZM445.739 96.8295C446.208 96.8295 446.61 96.7367 446.943 96.5511C447.28 96.3655 447.536 96.1231 447.71 95.8239C447.888 95.5208 447.977 95.197 447.977 94.8523V93.7273C447.917 93.7879 447.799 93.8447 447.625 93.8977C447.455 93.947 447.259 93.9905 447.04 94.0284C446.82 94.0625 446.606 94.0947 446.398 94.125C446.189 94.1515 446.015 94.1742 445.875 94.1932C445.545 94.2348 445.244 94.3049 444.972 94.4034C444.703 94.5019 444.487 94.6439 444.324 94.8295C444.165 95.0114 444.085 95.2538 444.085 95.5568C444.085 95.9773 444.241 96.2955 444.551 96.5114C444.862 96.7235 445.258 96.8295 445.739 96.8295ZM451.939 98V89.2727H453.57V90.6932H453.678C453.859 90.2121 454.157 89.8371 454.57 89.5682C454.982 89.2955 455.477 89.1591 456.053 89.1591C456.636 89.1591 457.125 89.2955 457.518 89.5682C457.916 89.8409 458.21 90.2159 458.399 90.6932H458.49C458.698 90.2273 459.03 89.8561 459.484 89.5795C459.939 89.2992 460.481 89.1591 461.109 89.1591C461.901 89.1591 462.547 89.4072 463.047 89.9034C463.551 90.3996 463.803 91.1477 463.803 92.1477V98H462.104V92.3068C462.104 91.7159 461.943 91.2879 461.621 91.0227C461.299 90.7576 460.914 90.625 460.467 90.625C459.914 90.625 459.484 90.7955 459.178 91.1364C458.871 91.4735 458.717 91.9072 458.717 92.4375V98H457.024V92.1989C457.024 91.7254 456.876 91.3447 456.581 91.0568C456.286 90.7689 455.901 90.625 455.428 90.625C455.106 90.625 454.808 90.7102 454.536 90.8807C454.267 91.0473 454.049 91.2803 453.882 91.5795C453.719 91.8788 453.638 92.2254 453.638 92.6193V98H451.939ZM469.841 98.1761C468.981 98.1761 468.241 97.9924 467.619 97.625C467.002 97.2538 466.525 96.733 466.188 96.0625C465.854 95.3883 465.688 94.5985 465.688 93.6932C465.688 92.7992 465.854 92.0114 466.188 91.3295C466.525 90.6477 466.994 90.1155 467.597 89.733C468.203 89.3504 468.911 89.1591 469.722 89.1591C470.214 89.1591 470.691 89.2405 471.153 89.4034C471.616 89.5663 472.03 89.822 472.398 90.1705C472.765 90.5189 473.055 90.9716 473.267 91.5284C473.479 92.0814 473.585 92.7538 473.585 93.5455V94.1477H466.648V92.875H471.92C471.92 92.428 471.83 92.0322 471.648 91.6875C471.466 91.339 471.21 91.0644 470.881 90.8636C470.555 90.6629 470.172 90.5625 469.733 90.5625C469.256 90.5625 468.839 90.6799 468.483 90.9148C468.131 91.1458 467.858 91.4489 467.665 91.8239C467.475 92.1951 467.381 92.5985 467.381 93.0341V94.0284C467.381 94.6117 467.483 95.108 467.688 95.517C467.896 95.9261 468.186 96.2386 468.557 96.4545C468.928 96.6667 469.362 96.7727 469.858 96.7727C470.18 96.7727 470.473 96.7273 470.739 96.6364C471.004 96.5417 471.233 96.4015 471.426 96.2159C471.619 96.0303 471.767 95.8011 471.869 95.5284L473.477 95.8182C473.348 96.2917 473.117 96.7064 472.784 97.0625C472.455 97.4148 472.04 97.6894 471.54 97.8864C471.044 98.0795 470.477 98.1761 469.841 98.1761ZM475.47 98V89.2727H477.112V90.6591H477.203C477.362 90.1894 477.643 89.8201 478.044 89.5511C478.449 89.2784 478.908 89.142 479.419 89.142C479.525 89.142 479.65 89.1458 479.794 89.1534C479.942 89.161 480.057 89.1705 480.141 89.1818V90.8068C480.072 90.7879 479.951 90.767 479.777 90.7443C479.603 90.7178 479.429 90.7045 479.254 90.7045C478.853 90.7045 478.495 90.7898 478.18 90.9602C477.87 91.1269 477.624 91.3598 477.442 91.6591C477.26 91.9545 477.169 92.2917 477.169 92.6705V98H475.47ZM484.072 98.1932C483.519 98.1932 483.019 98.0909 482.572 97.8864C482.125 97.678 481.771 97.3769 481.51 96.983C481.252 96.589 481.124 96.1061 481.124 95.5341C481.124 95.0417 481.218 94.6364 481.408 94.3182C481.597 94 481.853 93.7481 482.175 93.5625C482.497 93.3769 482.857 93.2367 483.254 93.142C483.652 93.0473 484.057 92.9754 484.47 92.9261C484.993 92.8655 485.417 92.8163 485.743 92.7784C486.069 92.7367 486.305 92.6705 486.453 92.5795C486.601 92.4886 486.675 92.3409 486.675 92.1364V92.0966C486.675 91.6004 486.535 91.2159 486.254 90.9432C485.978 90.6705 485.565 90.5341 485.016 90.5341C484.444 90.5341 483.993 90.661 483.663 90.9148C483.338 91.1648 483.112 91.4432 482.987 91.75L481.391 91.3864C481.58 90.8561 481.857 90.428 482.22 90.1023C482.588 89.7727 483.01 89.5341 483.487 89.3864C483.964 89.2348 484.466 89.1591 484.993 89.1591C485.341 89.1591 485.711 89.2008 486.101 89.2841C486.495 89.3636 486.862 89.5114 487.203 89.7273C487.548 89.9432 487.83 90.2519 488.05 90.6534C488.269 91.0511 488.379 91.5682 488.379 92.2045V98H486.72V96.8068H486.652C486.542 97.0265 486.377 97.2424 486.158 97.4545C485.938 97.6667 485.656 97.8428 485.311 97.983C484.966 98.1231 484.554 98.1932 484.072 98.1932ZM484.442 96.8295C484.911 96.8295 485.313 96.7367 485.646 96.5511C485.983 96.3655 486.239 96.1231 486.413 95.8239C486.591 95.5208 486.68 95.197 486.68 94.8523V93.7273C486.62 93.7879 486.502 93.8447 486.328 93.8977C486.158 93.947 485.963 93.9905 485.743 94.0284C485.523 94.0625 485.309 94.0947 485.101 94.125C484.893 94.1515 484.718 94.1742 484.578 94.1932C484.249 94.2348 483.947 94.3049 483.675 94.4034C483.406 94.5019 483.19 94.6439 483.027 94.8295C482.868 95.0114 482.788 95.2538 482.788 95.5568C482.788 95.9773 482.944 96.2955 483.254 96.5114C483.565 96.7235 483.961 96.8295 484.442 96.8295ZM497.182 91.4034L495.642 91.6761C495.578 91.4792 495.475 91.2917 495.335 91.1136C495.199 90.9356 495.013 90.7898 494.778 90.6761C494.544 90.5625 494.25 90.5057 493.898 90.5057C493.417 90.5057 493.015 90.6136 492.693 90.8295C492.371 91.0417 492.21 91.3163 492.21 91.6534C492.21 91.9451 492.318 92.1799 492.534 92.358C492.75 92.536 493.098 92.6818 493.58 92.7955L494.966 93.1136C495.769 93.2992 496.367 93.5852 496.761 93.9716C497.155 94.358 497.352 94.8598 497.352 95.4773C497.352 96 497.201 96.4659 496.898 96.875C496.598 97.2803 496.18 97.5985 495.642 97.8295C495.108 98.0606 494.489 98.1761 493.784 98.1761C492.807 98.1761 492.009 97.9678 491.392 97.5511C490.775 97.1307 490.396 96.5341 490.256 95.7614L491.898 95.5114C492 95.9394 492.21 96.2633 492.528 96.483C492.847 96.6989 493.261 96.8068 493.773 96.8068C494.33 96.8068 494.775 96.6913 495.108 96.4602C495.441 96.2254 495.608 95.9394 495.608 95.6023C495.608 95.3295 495.506 95.1004 495.301 94.9148C495.1 94.7292 494.792 94.589 494.375 94.4943L492.898 94.1705C492.083 93.9848 491.481 93.6894 491.091 93.2841C490.705 92.8788 490.511 92.3655 490.511 91.7443C490.511 91.2292 490.655 90.7784 490.943 90.392C491.231 90.0057 491.629 89.7045 492.136 89.4886C492.644 89.2689 493.225 89.1591 493.881 89.1591C494.824 89.1591 495.566 89.3636 496.108 89.7727C496.65 90.178 497.008 90.7216 497.182 91.4034Z" fill="black"/>
<rect x="576" width="160" height="128" rx="15" fill="#EDEDED"/>
<g clip-path="url(#clip3_248_2041)">
<path d="M646 50H644C641.791 50 640 51.7909 640 54V60C640 62.2091 641.791 64 644 64H646C648.209 64 650 62.2091 650 60V54C650 51.7909 648.209 50 646 50Z" stroke="black" stroke-width="2" stroke-linecap="round" stroke-linejoin="round"/>
<path d="M668 50H666C663.791 50 662 51.7909 662 54V60C662 62.2091 663.791 64 666 64H668C670.209 64 672 62.2091 672 60V54C672 51.7909 670.209 50 668 50Z" stroke="black" stroke-width="2" stroke-linecap="round" stroke-linejoin="round"/>
<path d="M640 54V48C640 43.7565 641.686 39.6869 644.686 36.6863C647.687 33.6857 651.757 32 656 32C660.243 32 664.313 33.6857 667.314 36.6863C670.314 39.6869 672 43.7565 672 48V54" stroke="black" stroke-width="2" stroke-linecap="round" stroke-linejoin="round"/>
</g>
<path d="M608.747 98V86.3636H610.503V91.4205H616.304V86.3636H618.065V98H616.304V92.9261H610.503V98H608.747ZM624.247 98.1761C623.387 98.1761 622.647 97.9924 622.026 97.625C621.408 97.2538 620.931 96.733 620.594 96.0625C620.26 95.3883 620.094 94.5985 620.094 93.6932C620.094 92.7992 620.26 92.0114 620.594 91.3295C620.931 90.6477 621.401 90.1155 622.003 89.733C622.609 89.3504 623.317 89.1591 624.128 89.1591C624.62 89.1591 625.098 89.2405 625.56 89.4034C626.022 89.5663 626.437 89.822 626.804 90.1705C627.171 90.5189 627.461 90.9716 627.673 91.5284C627.885 92.0814 627.991 92.7538 627.991 93.5455V94.1477H621.054V92.875H626.327C626.327 92.428 626.236 92.0322 626.054 91.6875C625.872 91.339 625.616 91.0644 625.287 90.8636C624.961 90.6629 624.579 90.5625 624.139 90.5625C623.662 90.5625 623.245 90.6799 622.889 90.9148C622.537 91.1458 622.264 91.4489 622.071 91.8239C621.882 92.1951 621.787 92.5985 621.787 93.0341V94.0284C621.787 94.6117 621.889 95.108 622.094 95.517C622.302 95.9261 622.592 96.2386 622.963 96.4545C623.334 96.6667 623.768 96.7727 624.264 96.7727C624.586 96.7727 624.88 96.7273 625.145 96.6364C625.41 96.5417 625.639 96.4015 625.832 96.2159C626.026 96.0303 626.173 95.8011 626.276 95.5284L627.884 95.8182C627.755 96.2917 627.524 96.7064 627.19 97.0625C626.861 97.4148 626.446 97.6894 625.946 97.8864C625.45 98.0795 624.884 98.1761 624.247 98.1761ZM632.416 98.1932C631.863 98.1932 631.363 98.0909 630.916 97.8864C630.469 97.678 630.115 97.3769 629.854 96.983C629.596 96.589 629.467 96.1061 629.467 95.5341C629.467 95.0417 629.562 94.6364 629.751 94.3182C629.941 94 630.196 93.7481 630.518 93.5625C630.84 93.3769 631.2 93.2367 631.598 93.142C631.996 93.0473 632.401 92.9754 632.814 92.9261C633.337 92.8655 633.761 92.8163 634.087 92.7784C634.412 92.7367 634.649 92.6705 634.797 92.5795C634.945 92.4886 635.018 92.3409 635.018 92.1364V92.0966C635.018 91.6004 634.878 91.2159 634.598 90.9432C634.321 90.6705 633.909 90.5341 633.359 90.5341C632.787 90.5341 632.337 90.661 632.007 90.9148C631.681 91.1648 631.456 91.4432 631.331 91.75L629.734 91.3864C629.924 90.8561 630.2 90.428 630.564 90.1023C630.931 89.7727 631.354 89.5341 631.831 89.3864C632.308 89.2348 632.81 89.1591 633.337 89.1591C633.685 89.1591 634.054 89.2008 634.445 89.2841C634.839 89.3636 635.206 89.5114 635.547 89.7273C635.892 89.9432 636.174 90.2519 636.393 90.6534C636.613 91.0511 636.723 91.5682 636.723 92.2045V98H635.064V96.8068H634.996C634.886 97.0265 634.721 97.2424 634.501 97.4545C634.282 97.6667 634 97.8428 633.655 97.983C633.31 98.1231 632.897 98.1932 632.416 98.1932ZM632.786 96.8295C633.255 96.8295 633.657 96.7367 633.99 96.5511C634.327 96.3655 634.583 96.1231 634.757 95.8239C634.935 95.5208 635.024 95.197 635.024 94.8523V93.7273C634.964 93.7879 634.846 93.8447 634.672 93.8977C634.501 93.947 634.306 93.9905 634.087 94.0284C633.867 94.0625 633.653 94.0947 633.445 94.125C633.236 94.1515 633.062 94.1742 632.922 94.1932C632.592 94.2348 632.291 94.3049 632.018 94.4034C631.75 94.5019 631.534 94.6439 631.371 94.8295C631.212 95.0114 631.132 95.2538 631.132 95.5568C631.132 95.9773 631.287 96.2955 631.598 96.5114C631.909 96.7235 632.304 96.8295 632.786 96.8295ZM642.253 98.1705C641.548 98.1705 640.92 97.9905 640.366 97.6307C639.817 97.267 639.385 96.75 639.071 96.0795C638.76 95.4053 638.605 94.5966 638.605 93.6534C638.605 92.7102 638.762 91.9034 639.077 91.233C639.395 90.5625 639.83 90.0492 640.384 89.6932C640.937 89.3371 641.563 89.1591 642.264 89.1591C642.806 89.1591 643.241 89.25 643.571 89.4318C643.904 89.6098 644.162 89.8182 644.344 90.0568C644.529 90.2955 644.673 90.5057 644.776 90.6875H644.878V86.3636H646.577V98H644.918V96.642H644.776C644.673 96.8277 644.526 97.0398 644.332 97.2784C644.143 97.517 643.882 97.7254 643.548 97.9034C643.215 98.0814 642.783 98.1705 642.253 98.1705ZM642.628 96.7216C643.116 96.7216 643.529 96.5928 643.866 96.3352C644.207 96.0739 644.465 95.7121 644.639 95.25C644.817 94.7879 644.906 94.25 644.906 93.6364C644.906 93.0303 644.819 92.5 644.645 92.0455C644.471 91.5909 644.215 91.2367 643.878 90.983C643.541 90.7292 643.124 90.6023 642.628 90.6023C642.116 90.6023 641.69 90.7348 641.349 91C641.009 91.2652 640.751 91.6269 640.577 92.0852C640.406 92.5436 640.321 93.0606 640.321 93.6364C640.321 94.2197 640.408 94.7443 640.582 95.2102C640.757 95.6761 641.014 96.0455 641.355 96.3182C641.7 96.5871 642.124 96.7216 642.628 96.7216ZM649.001 101.273V89.2727H650.661V90.6875H650.803C650.901 90.5057 651.043 90.2955 651.229 90.0568C651.414 89.8182 651.672 89.6098 652.001 89.4318C652.331 89.25 652.767 89.1591 653.308 89.1591C654.013 89.1591 654.642 89.3371 655.195 89.6932C655.748 90.0492 656.181 90.5625 656.496 91.233C656.814 91.9034 656.973 92.7102 656.973 93.6534C656.973 94.5966 656.816 95.4053 656.501 96.0795C656.187 96.75 655.755 97.267 655.206 97.6307C654.657 97.9905 654.03 98.1705 653.325 98.1705C652.795 98.1705 652.361 98.0814 652.024 97.9034C651.691 97.7254 651.429 97.517 651.24 97.2784C651.051 97.0398 650.905 96.8277 650.803 96.642H650.7V101.273H649.001ZM650.666 93.6364C650.666 94.25 650.755 94.7879 650.933 95.25C651.111 95.7121 651.369 96.0739 651.706 96.3352C652.043 96.5928 652.456 96.7216 652.945 96.7216C653.452 96.7216 653.876 96.5871 654.217 96.3182C654.558 96.0455 654.816 95.6761 654.99 95.2102C655.168 94.7443 655.257 94.2197 655.257 93.6364C655.257 93.0606 655.17 92.5436 654.996 92.0852C654.825 91.6269 654.568 91.2652 654.223 91C653.882 90.7348 653.456 90.6023 652.945 90.6023C652.452 90.6023 652.036 90.7292 651.695 90.983C651.357 91.2367 651.102 91.5909 650.928 92.0455C650.753 92.5 650.666 93.0303 650.666 93.6364ZM660.575 92.8182V98H658.876V86.3636H660.553V90.6932H660.661C660.865 90.2235 661.178 89.8504 661.598 89.5739C662.018 89.2973 662.568 89.1591 663.246 89.1591C663.844 89.1591 664.367 89.2822 664.814 89.5284C665.265 89.7746 665.613 90.142 665.859 90.6307C666.109 91.1155 666.234 91.7216 666.234 92.4489V98H664.536V92.6534C664.536 92.0133 664.371 91.517 664.041 91.1648C663.712 90.8087 663.253 90.6307 662.666 90.6307C662.265 90.6307 661.905 90.7159 661.587 90.8864C661.272 91.0568 661.024 91.3068 660.842 91.6364C660.664 91.9621 660.575 92.3561 660.575 92.8182ZM672.178 98.1761C671.359 98.1761 670.645 97.9886 670.036 97.6136C669.426 97.2386 668.952 96.714 668.615 96.0398C668.278 95.3655 668.109 94.5777 668.109 93.6761C668.109 92.7708 668.278 91.9792 668.615 91.3011C668.952 90.6231 669.426 90.0966 670.036 89.7216C670.645 89.3466 671.359 89.1591 672.178 89.1591C672.996 89.1591 673.71 89.3466 674.32 89.7216C674.929 90.0966 675.403 90.6231 675.74 91.3011C676.077 91.9792 676.246 92.7708 676.246 93.6761C676.246 94.5777 676.077 95.3655 675.74 96.0398C675.403 96.714 674.929 97.2386 674.32 97.6136C673.71 97.9886 672.996 98.1761 672.178 98.1761ZM672.183 96.75C672.714 96.75 673.153 96.6098 673.501 96.3295C673.85 96.0492 674.107 95.6761 674.274 95.2102C674.445 94.7443 674.53 94.2311 674.53 93.6705C674.53 93.1136 674.445 92.6023 674.274 92.1364C674.107 91.6667 673.85 91.2898 673.501 91.0057C673.153 90.7216 672.714 90.5795 672.183 90.5795C671.649 90.5795 671.206 90.7216 670.854 91.0057C670.505 91.2898 670.246 91.6667 670.075 92.1364C669.909 92.6023 669.825 93.1136 669.825 93.6705C669.825 94.2311 669.909 94.7443 670.075 95.2102C670.246 95.6761 670.505 96.0492 670.854 96.3295C671.206 96.6098 671.649 96.75 672.183 96.75ZM679.841 92.8182V98H678.142V89.2727H679.773V90.6932H679.881C680.081 90.2311 680.396 89.8598 680.824 89.5795C681.256 89.2992 681.799 89.1591 682.455 89.1591C683.049 89.1591 683.57 89.2841 684.017 89.5341C684.464 89.7803 684.811 90.1477 685.057 90.6364C685.303 91.125 685.426 91.7292 685.426 92.4489V98H683.727V92.6534C683.727 92.0208 683.563 91.5265 683.233 91.1705C682.903 90.8106 682.451 90.6307 681.875 90.6307C681.481 90.6307 681.131 90.7159 680.824 90.8864C680.521 91.0568 680.28 91.3068 680.102 91.6364C679.928 91.9621 679.841 92.3561 679.841 92.8182ZM691.466 98.1761C690.606 98.1761 689.866 97.9924 689.244 97.625C688.627 97.2538 688.15 96.733 687.812 96.0625C687.479 95.3883 687.312 94.5985 687.312 93.6932C687.312 92.7992 687.479 92.0114 687.812 91.3295C688.15 90.6477 688.619 90.1155 689.222 89.733C689.828 89.3504 690.536 89.1591 691.347 89.1591C691.839 89.1591 692.316 89.2405 692.778 89.4034C693.241 89.5663 693.655 89.822 694.023 90.1705C694.39 90.5189 694.68 90.9716 694.892 91.5284C695.104 92.0814 695.21 92.7538 695.21 93.5455V94.1477H688.273V92.875H693.545C693.545 92.428 693.455 92.0322 693.273 91.6875C693.091 91.339 692.835 91.0644 692.506 90.8636C692.18 90.6629 691.797 90.5625 691.358 90.5625C690.881 90.5625 690.464 90.6799 690.108 90.9148C689.756 91.1458 689.483 91.4489 689.29 91.8239C689.1 92.1951 689.006 92.5985 689.006 93.0341V94.0284C689.006 94.6117 689.108 95.108 689.312 95.517C689.521 95.9261 689.811 96.2386 690.182 96.4545C690.553 96.6667 690.987 96.7727 691.483 96.7727C691.805 96.7727 692.098 96.7273 692.364 96.6364C692.629 96.5417 692.858 96.4015 693.051 96.2159C693.244 96.0303 693.392 95.8011 693.494 95.5284L695.102 95.8182C694.973 96.2917 694.742 96.7064 694.409 97.0625C694.08 97.4148 693.665 97.6894 693.165 97.8864C692.669 98.0795 692.102 98.1761 691.466 98.1761ZM703.635 91.4034L702.095 91.6761C702.031 91.4792 701.929 91.2917 701.788 91.1136C701.652 90.9356 701.466 90.7898 701.232 90.6761C700.997 90.5625 700.703 90.5057 700.351 90.5057C699.87 90.5057 699.468 90.6136 699.146 90.8295C698.824 91.0417 698.663 91.3163 698.663 91.6534C698.663 91.9451 698.771 92.1799 698.987 92.358C699.203 92.536 699.552 92.6818 700.033 92.7955L701.419 93.1136C702.222 93.2992 702.821 93.5852 703.214 93.9716C703.608 94.358 703.805 94.8598 703.805 95.4773C703.805 96 703.654 96.4659 703.351 96.875C703.052 97.2803 702.633 97.5985 702.095 97.8295C701.561 98.0606 700.942 98.1761 700.237 98.1761C699.26 98.1761 698.463 97.9678 697.845 97.5511C697.228 97.1307 696.849 96.5341 696.709 95.7614L698.351 95.5114C698.453 95.9394 698.663 96.2633 698.982 96.483C699.3 96.6989 699.714 96.8068 700.226 96.8068C700.783 96.8068 701.228 96.6913 701.561 96.4602C701.894 96.2254 702.061 95.9394 702.061 95.6023C702.061 95.3295 701.959 95.1004 701.754 94.9148C701.554 94.7292 701.245 94.589 700.828 94.4943L699.351 94.1705C698.536 93.9848 697.934 93.6894 697.544 93.2841C697.158 92.8788 696.964 92.3655 696.964 91.7443C696.964 91.2292 697.108 90.7784 697.396 90.392C697.684 90.0057 698.082 89.7045 698.589 89.4886C699.097 89.2689 699.679 89.1591 700.334 89.1591C701.277 89.1591 702.019 89.3636 702.561 89.7727C703.103 90.178 703.461 90.7216 703.635 91.4034Z" fill="black"/>
<rect x="768" width="160" height="128" rx="15" fill="#EDEDED"/>
<g clip-path="url(#clip4_248_2041)">
<path d="M864 32H832C830.895 32 830 32.8954 830 34V54C830 55.1046 830.895 56 832 56H864C865.105 56 866 55.1046 866 54V34C866 32.8954 865.105 32 864 32Z" stroke="black" stroke-width="2" stroke-linecap="round" stroke-linejoin="round"/>
<path d="M838 64H858" stroke="black" stroke-width="2" stroke-linecap="round" stroke-linejoin="round"/>
<path d="M842 56V64" stroke="black" stroke-width="2" stroke-linecap="round" stroke-linejoin="round"/>
<path d="M854 56V64" stroke="black" stroke-width="2" stroke-linecap="round" stroke-linejoin="round"/>
<path d="M830.857 51.4286H865.143" stroke="black" stroke-width="2" stroke-linecap="round"/>
</g>
<path d="M816.49 90.1477H814.717C814.649 89.7689 814.522 89.4356 814.337 89.1477C814.151 88.8598 813.924 88.6155 813.655 88.4148C813.386 88.214 813.085 88.0625 812.751 87.9602C812.422 87.858 812.071 87.8068 811.7 87.8068C811.03 87.8068 810.429 87.9754 809.899 88.3125C809.373 88.6496 808.956 89.1439 808.649 89.7955C808.346 90.447 808.195 91.2424 808.195 92.1818C808.195 93.1288 808.346 93.928 808.649 94.5795C808.956 95.2311 809.375 95.7235 809.905 96.0568C810.435 96.3902 811.032 96.5568 811.695 96.5568C812.062 96.5568 812.411 96.5076 812.74 96.4091C813.073 96.3068 813.375 96.1572 813.643 95.9602C813.912 95.7633 814.14 95.5227 814.325 95.2386C814.515 94.9508 814.645 94.6212 814.717 94.25L816.49 94.2557C816.395 94.8277 816.212 95.3542 815.939 95.8352C815.67 96.3125 815.323 96.7254 814.899 97.0739C814.479 97.4186 813.998 97.6856 813.456 97.875C812.914 98.0644 812.323 98.1591 811.683 98.1591C810.676 98.1591 809.778 97.9205 808.99 97.4432C808.202 96.9621 807.581 96.2746 807.126 95.3807C806.676 94.4867 806.45 93.4205 806.45 92.1818C806.45 90.9394 806.678 89.8731 807.132 88.983C807.587 88.089 808.208 87.4034 808.996 86.9261C809.784 86.4451 810.679 86.2045 811.683 86.2045C812.301 86.2045 812.876 86.2936 813.411 86.4716C813.948 86.6458 814.431 86.9034 814.859 87.2443C815.287 87.5814 815.642 87.9943 815.922 88.483C816.202 88.9678 816.392 89.5227 816.49 90.1477ZM822.131 98.1761C821.313 98.1761 820.598 97.9886 819.989 97.6136C819.379 97.2386 818.905 96.714 818.568 96.0398C818.231 95.3655 818.062 94.5777 818.062 93.6761C818.062 92.7708 818.231 91.9792 818.568 91.3011C818.905 90.6231 819.379 90.0966 819.989 89.7216C820.598 89.3466 821.313 89.1591 822.131 89.1591C822.949 89.1591 823.663 89.3466 824.273 89.7216C824.883 90.0966 825.356 90.6231 825.693 91.3011C826.03 91.9792 826.199 92.7708 826.199 93.6761C826.199 94.5777 826.03 95.3655 825.693 96.0398C825.356 96.714 824.883 97.2386 824.273 97.6136C823.663 97.9886 822.949 98.1761 822.131 98.1761ZM822.136 96.75C822.667 96.75 823.106 96.6098 823.455 96.3295C823.803 96.0492 824.061 95.6761 824.227 95.2102C824.398 94.7443 824.483 94.2311 824.483 93.6705C824.483 93.1136 824.398 92.6023 824.227 92.1364C824.061 91.6667 823.803 91.2898 823.455 91.0057C823.106 90.7216 822.667 90.5795 822.136 90.5795C821.602 90.5795 821.159 90.7216 820.807 91.0057C820.458 91.2898 820.199 91.6667 820.028 92.1364C819.862 92.6023 819.778 93.1136 819.778 93.6705C819.778 94.2311 819.862 94.7443 820.028 95.2102C820.199 95.6761 820.458 96.0492 820.807 96.3295C821.159 96.6098 821.602 96.75 822.136 96.75ZM828.095 98V89.2727H829.726V90.6932H829.834C830.016 90.2121 830.313 89.8371 830.726 89.5682C831.139 89.2955 831.633 89.1591 832.209 89.1591C832.792 89.1591 833.281 89.2955 833.675 89.5682C834.072 89.8409 834.366 90.2159 834.555 90.6932H834.646C834.855 90.2273 835.186 89.8561 835.641 89.5795C836.095 89.2992 836.637 89.1591 837.266 89.1591C838.057 89.1591 838.703 89.4072 839.203 89.9034C839.707 90.3996 839.959 91.1477 839.959 92.1477V98H838.26V92.3068C838.26 91.7159 838.099 91.2879 837.777 91.0227C837.455 90.7576 837.071 90.625 836.624 90.625C836.071 90.625 835.641 90.7955 835.334 91.1364C835.027 91.4735 834.874 91.9072 834.874 92.4375V98H833.18V92.1989C833.18 91.7254 833.033 91.3447 832.737 91.0568C832.442 90.7689 832.057 90.625 831.584 90.625C831.262 90.625 830.964 90.7102 830.692 90.8807C830.423 91.0473 830.205 91.2803 830.038 91.5795C829.875 91.8788 829.794 92.2254 829.794 92.6193V98H828.095ZM842.236 101.273V89.2727H843.895V90.6875H844.037C844.135 90.5057 844.277 90.2955 844.463 90.0568C844.649 89.8182 844.906 89.6098 845.236 89.4318C845.565 89.25 846.001 89.1591 846.543 89.1591C847.247 89.1591 847.876 89.3371 848.429 89.6932C848.982 90.0492 849.416 90.5625 849.73 91.233C850.048 91.9034 850.207 92.7102 850.207 93.6534C850.207 94.5966 850.05 95.4053 849.736 96.0795C849.421 96.75 848.99 97.267 848.44 97.6307C847.891 97.9905 847.264 98.1705 846.56 98.1705C846.029 98.1705 845.596 98.0814 845.259 97.9034C844.925 97.7254 844.664 97.517 844.474 97.2784C844.285 97.0398 844.139 96.8277 844.037 96.642H843.935V101.273H842.236ZM843.901 93.6364C843.901 94.25 843.99 94.7879 844.168 95.25C844.346 95.7121 844.603 96.0739 844.94 96.3352C845.277 96.5928 845.69 96.7216 846.179 96.7216C846.687 96.7216 847.111 96.5871 847.452 96.3182C847.793 96.0455 848.05 95.6761 848.224 95.2102C848.402 94.7443 848.491 94.2197 848.491 93.6364C848.491 93.0606 848.404 92.5436 848.23 92.0852C848.06 91.6269 847.802 91.2652 847.457 91C847.116 90.7348 846.69 90.6023 846.179 90.6023C845.687 90.6023 845.27 90.7292 844.929 90.983C844.592 91.2367 844.336 91.5909 844.162 92.0455C843.988 92.5 843.901 93.0303 843.901 93.6364ZM857.639 94.3807V89.2727H859.344V98H857.673V96.4886H857.582C857.382 96.9545 857.06 97.3428 856.616 97.6534C856.177 97.9602 855.63 98.1136 854.974 98.1136C854.414 98.1136 853.918 97.9905 853.486 97.7443C853.058 97.4943 852.721 97.125 852.474 96.6364C852.232 96.1477 852.111 95.5436 852.111 94.8239V89.2727H853.81V94.6193C853.81 95.214 853.974 95.6875 854.304 96.0398C854.634 96.392 855.062 96.5682 855.588 96.5682C855.906 96.5682 856.223 96.4886 856.537 96.3295C856.855 96.1705 857.118 95.9299 857.327 95.608C857.539 95.286 857.643 94.8769 857.639 94.3807ZM865.7 89.2727V90.6364H860.933V89.2727H865.7ZM862.212 87.1818H863.911V95.4375C863.911 95.767 863.96 96.0152 864.058 96.1818C864.157 96.3447 864.284 96.4564 864.439 96.517C864.598 96.5739 864.77 96.6023 864.956 96.6023C865.092 96.6023 865.212 96.5928 865.314 96.5739C865.416 96.5549 865.496 96.5398 865.553 96.5284L865.859 97.9318C865.761 97.9697 865.621 98.0076 865.439 98.0455C865.257 98.0871 865.03 98.1098 864.757 98.1136C864.31 98.1212 863.893 98.0417 863.507 97.875C863.121 97.7083 862.808 97.4508 862.57 97.1023C862.331 96.7538 862.212 96.3163 862.212 95.7898V87.1818ZM871.247 98.1761C870.387 98.1761 869.647 97.9924 869.026 97.625C868.408 97.2538 867.931 96.733 867.594 96.0625C867.26 95.3883 867.094 94.5985 867.094 93.6932C867.094 92.7992 867.26 92.0114 867.594 91.3295C867.931 90.6477 868.401 90.1155 869.003 89.733C869.609 89.3504 870.317 89.1591 871.128 89.1591C871.62 89.1591 872.098 89.2405 872.56 89.4034C873.022 89.5663 873.437 89.822 873.804 90.1705C874.171 90.5189 874.461 90.9716 874.673 91.5284C874.885 92.0814 874.991 92.7538 874.991 93.5455V94.1477H868.054V92.875H873.327C873.327 92.428 873.236 92.0322 873.054 91.6875C872.872 91.339 872.616 91.0644 872.287 90.8636C871.961 90.6629 871.579 90.5625 871.139 90.5625C870.662 90.5625 870.245 90.6799 869.889 90.9148C869.537 91.1458 869.264 91.4489 869.071 91.8239C868.882 92.1951 868.787 92.5985 868.787 93.0341V94.0284C868.787 94.6117 868.889 95.108 869.094 95.517C869.302 95.9261 869.592 96.2386 869.963 96.4545C870.334 96.6667 870.768 96.7727 871.264 96.7727C871.586 96.7727 871.88 96.7273 872.145 96.6364C872.41 96.5417 872.639 96.4015 872.832 96.2159C873.026 96.0303 873.173 95.8011 873.276 95.5284L874.884 95.8182C874.755 96.2917 874.524 96.7064 874.19 97.0625C873.861 97.4148 873.446 97.6894 872.946 97.8864C872.45 98.0795 871.884 98.1761 871.247 98.1761ZM876.876 98V89.2727H878.518V90.6591H878.609C878.768 90.1894 879.049 89.8201 879.45 89.5511C879.856 89.2784 880.314 89.142 880.825 89.142C880.931 89.142 881.056 89.1458 881.2 89.1534C881.348 89.161 881.464 89.1705 881.547 89.1818V90.8068C881.479 90.7879 881.357 90.767 881.183 90.7443C881.009 90.7178 880.835 90.7045 880.661 90.7045C880.259 90.7045 879.901 90.7898 879.587 90.9602C879.276 91.1269 879.03 91.3598 878.848 91.6591C878.666 91.9545 878.575 92.2917 878.575 92.6705V98H876.876ZM889.557 91.4034L888.017 91.6761C887.953 91.4792 887.85 91.2917 887.71 91.1136C887.574 90.9356 887.388 90.7898 887.153 90.6761C886.919 90.5625 886.625 90.5057 886.273 90.5057C885.792 90.5057 885.39 90.6136 885.068 90.8295C884.746 91.0417 884.585 91.3163 884.585 91.6534C884.585 91.9451 884.693 92.1799 884.909 92.358C885.125 92.536 885.473 92.6818 885.955 92.7955L887.341 93.1136C888.144 93.2992 888.742 93.5852 889.136 93.9716C889.53 94.358 889.727 94.8598 889.727 95.4773C889.727 96 889.576 96.4659 889.273 96.875C888.973 97.2803 888.555 97.5985 888.017 97.8295C887.483 98.0606 886.864 98.1761 886.159 98.1761C885.182 98.1761 884.384 97.9678 883.767 97.5511C883.15 97.1307 882.771 96.5341 882.631 95.7614L884.273 95.5114C884.375 95.9394 884.585 96.2633 884.903 96.483C885.222 96.6989 885.636 96.8068 886.148 96.8068C886.705 96.8068 887.15 96.6913 887.483 96.4602C887.816 96.2254 887.983 95.9394 887.983 95.6023C887.983 95.3295 887.881 95.1004 887.676 94.9148C887.475 94.7292 887.167 94.589 886.75 94.4943L885.273 94.1705C884.458 93.9848 883.856 93.6894 883.466 93.2841C883.08 92.8788 882.886 92.3655 882.886 91.7443C882.886 91.2292 883.03 90.7784 883.318 90.392C883.606 90.0057 884.004 89.7045 884.511 89.4886C885.019 89.2689 885.6 89.1591 886.256 89.1591C887.199 89.1591 887.941 89.3636 888.483 89.7727C889.025 90.178 889.383 90.7216 889.557 91.4034Z" fill="black"/>
<rect x="960" width="160" height="128" rx="15" fill="#EDEDED"/>
<g clip-path="url(#clip5_248_2041)">
<path d="M1056 36H1024C1021.79 36 1020 37.7909 1020 40V56C1020 58.2091 1021.79 60 1024 60H1056C1058.21 60 1060 58.2091 1060 56V40C1060 37.7909 1058.21 36 1056 36Z" stroke="black" stroke-width="2" stroke-linecap="round" stroke-linejoin="round"/>
<path d="M1028 48H1036M1032 44V52" stroke="black" stroke-width="2" stroke-linecap="round" stroke-linejoin="round"/>
<path d="M1046 46V46.0207" stroke="black" stroke-width="3" stroke-linecap="round" stroke-linejoin="round"/>
<path d="M1052 49.9999V50.0206" stroke="black" stroke-width="3" stroke-linecap="round" stroke-linejoin="round"/>
</g>
<path d="M1019.83 90.0398C1019.72 89.6951 1019.57 89.3864 1019.38 89.1136C1019.2 88.8371 1018.98 88.6023 1018.73 88.4091C1018.47 88.2121 1018.19 88.0625 1017.86 87.9602C1017.54 87.858 1017.18 87.8068 1016.8 87.8068C1016.14 87.8068 1015.55 87.9754 1015.02 88.3125C1014.5 88.6496 1014.08 89.1439 1013.77 89.7955C1013.47 90.4432 1013.32 91.2367 1013.32 92.1761C1013.32 93.1193 1013.47 93.9167 1013.78 94.5682C1014.09 95.2197 1014.51 95.714 1015.04 96.0511C1015.58 96.3883 1016.18 96.5568 1016.87 96.5568C1017.5 96.5568 1018.05 96.428 1018.52 96.1705C1018.99 95.9129 1019.36 95.5492 1019.62 95.0795C1019.88 94.6061 1020.01 94.0492 1020.01 93.4091L1020.46 93.4943H1017.13V92.0455H1021.71V93.3693C1021.71 94.3466 1021.5 95.1951 1021.08 95.9148C1020.67 96.6307 1020.1 97.1837 1019.37 97.5739C1018.64 97.964 1017.8 98.1591 1016.87 98.1591C1015.81 98.1591 1014.89 97.9167 1014.09 97.4318C1013.3 96.947 1012.68 96.2595 1012.24 95.3693C1011.8 94.4754 1011.58 93.4148 1011.58 92.1875C1011.58 91.2595 1011.7 90.4261 1011.96 89.6875C1012.22 88.9489 1012.58 88.322 1013.05 87.8068C1013.52 87.2879 1014.07 86.892 1014.7 86.6193C1015.34 86.3428 1016.03 86.2045 1016.79 86.2045C1017.41 86.2045 1018 86.2973 1018.54 86.483C1019.09 86.6686 1019.57 86.9318 1020 87.2727C1020.42 87.6136 1020.78 88.0189 1021.06 88.4886C1021.34 88.9545 1021.53 89.4716 1021.63 90.0398H1019.83ZM1026.34 98.1932C1025.79 98.1932 1025.29 98.0909 1024.84 97.8864C1024.39 97.678 1024.04 97.3769 1023.78 96.983C1023.52 96.589 1023.39 96.1061 1023.39 95.5341C1023.39 95.0417 1023.48 94.6364 1023.67 94.3182C1023.86 94 1024.12 93.7481 1024.44 93.5625C1024.76 93.3769 1025.12 93.2367 1025.52 93.142C1025.92 93.0473 1026.32 92.9754 1026.74 92.9261C1027.26 92.8655 1027.68 92.8163 1028.01 92.7784C1028.33 92.7367 1028.57 92.6705 1028.72 92.5795C1028.87 92.4886 1028.94 92.3409 1028.94 92.1364V92.0966C1028.94 91.6004 1028.8 91.2159 1028.52 90.9432C1028.24 90.6705 1027.83 90.5341 1027.28 90.5341C1026.71 90.5341 1026.26 90.661 1025.93 90.9148C1025.6 91.1648 1025.38 91.4432 1025.25 91.75L1023.66 91.3864C1023.85 90.8561 1024.12 90.428 1024.49 90.1023C1024.85 89.7727 1025.28 89.5341 1025.75 89.3864C1026.23 89.2348 1026.73 89.1591 1027.26 89.1591C1027.61 89.1591 1027.98 89.2008 1028.37 89.2841C1028.76 89.3636 1029.13 89.5114 1029.47 89.7273C1029.81 89.9432 1030.1 90.2519 1030.32 90.6534C1030.54 91.0511 1030.64 91.5682 1030.64 92.2045V98H1028.99V96.8068H1028.92C1028.81 97.0265 1028.64 97.2424 1028.42 97.4545C1028.2 97.6667 1027.92 97.8428 1027.58 97.983C1027.23 98.1231 1026.82 98.1932 1026.34 98.1932ZM1026.71 96.8295C1027.18 96.8295 1027.58 96.7367 1027.91 96.5511C1028.25 96.3655 1028.5 96.1231 1028.68 95.8239C1028.86 95.5208 1028.95 95.197 1028.95 94.8523V93.7273C1028.89 93.7879 1028.77 93.8447 1028.59 93.8977C1028.42 93.947 1028.23 93.9905 1028.01 94.0284C1027.79 94.0625 1027.57 94.0947 1027.37 94.125C1027.16 94.1515 1026.98 94.1742 1026.84 94.1932C1026.51 94.2348 1026.21 94.3049 1025.94 94.4034C1025.67 94.5019 1025.46 94.6439 1025.29 94.8295C1025.13 95.0114 1025.05 95.2538 1025.05 95.5568C1025.05 95.9773 1025.21 96.2955 1025.52 96.5114C1025.83 96.7235 1026.23 96.8295 1026.71 96.8295ZM1032.91 98V89.2727H1034.54V90.6932H1034.65C1034.83 90.2121 1035.13 89.8371 1035.54 89.5682C1035.95 89.2955 1036.45 89.1591 1037.02 89.1591C1037.6 89.1591 1038.09 89.2955 1038.49 89.5682C1038.88 89.8409 1039.18 90.2159 1039.37 90.6932H1039.46C1039.67 90.2273 1040 89.8561 1040.45 89.5795C1040.91 89.2992 1041.45 89.1591 1042.08 89.1591C1042.87 89.1591 1043.52 89.4072 1044.02 89.9034C1044.52 90.3996 1044.77 91.1477 1044.77 92.1477V98H1043.07V92.3068C1043.07 91.7159 1042.91 91.2879 1042.59 91.0227C1042.27 90.7576 1041.88 90.625 1041.44 90.625C1040.88 90.625 1040.45 90.7955 1040.15 91.1364C1039.84 91.4735 1039.69 91.9072 1039.69 92.4375V98H1037.99V92.1989C1037.99 91.7254 1037.85 91.3447 1037.55 91.0568C1037.25 90.7689 1036.87 90.625 1036.4 90.625C1036.07 90.625 1035.78 90.7102 1035.5 90.8807C1035.24 91.0473 1035.02 91.2803 1034.85 91.5795C1034.69 91.8788 1034.61 92.2254 1034.61 92.6193V98H1032.91ZM1047.05 98V89.2727H1048.75V98H1047.05ZM1047.91 87.9261C1047.61 87.9261 1047.36 87.8277 1047.14 87.6307C1046.94 87.4299 1046.83 87.1913 1046.83 86.9148C1046.83 86.6345 1046.94 86.3958 1047.14 86.1989C1047.36 85.9981 1047.61 85.8977 1047.91 85.8977C1048.2 85.8977 1048.45 85.9981 1048.66 86.1989C1048.87 86.3958 1048.98 86.6345 1048.98 86.9148C1048.98 87.1913 1048.87 87.4299 1048.66 87.6307C1048.45 87.8277 1048.2 87.9261 1047.91 87.9261ZM1052.73 92.8182V98H1051.03V89.2727H1052.66V90.6932H1052.77C1052.97 90.2311 1053.29 89.8598 1053.71 89.5795C1054.15 89.2992 1054.69 89.1591 1055.35 89.1591C1055.94 89.1591 1056.46 89.2841 1056.91 89.5341C1057.35 89.7803 1057.7 90.1477 1057.95 90.6364C1058.19 91.125 1058.32 91.7292 1058.32 92.4489V98H1056.62V92.6534C1056.62 92.0208 1056.45 91.5265 1056.12 91.1705C1055.79 90.8106 1055.34 90.6307 1054.77 90.6307C1054.37 90.6307 1054.02 90.7159 1053.71 90.8864C1053.41 91.0568 1053.17 91.3068 1052.99 91.6364C1052.82 91.9621 1052.73 92.3561 1052.73 92.8182ZM1064.25 101.455C1063.56 101.455 1062.96 101.364 1062.46 101.182C1061.97 101 1061.56 100.759 1061.25 100.46C1060.93 100.161 1060.7 99.8333 1060.54 99.4773L1062 98.875C1062.11 99.0417 1062.24 99.2178 1062.41 99.4034C1062.59 99.5928 1062.82 99.7538 1063.12 99.8864C1063.42 100.019 1063.8 100.085 1064.27 100.085C1064.92 100.085 1065.45 99.928 1065.87 99.6136C1066.29 99.303 1066.5 98.8068 1066.5 98.125V96.4091H1066.39C1066.29 96.5947 1066.14 96.8011 1065.95 97.0284C1065.76 97.2557 1065.5 97.4527 1065.16 97.6193C1064.83 97.786 1064.4 97.8693 1063.86 97.8693C1063.17 97.8693 1062.55 97.7083 1062 97.3864C1061.45 97.0606 1061.01 96.5814 1060.69 95.9489C1060.37 95.3125 1060.21 94.5303 1060.21 93.6023C1060.21 92.6742 1060.37 91.8788 1060.69 91.2159C1061 90.553 1061.44 90.0455 1061.99 89.6932C1062.55 89.3371 1063.17 89.1591 1063.87 89.1591C1064.42 89.1591 1064.85 89.25 1065.19 89.4318C1065.52 89.6098 1065.78 89.8182 1065.96 90.0568C1066.15 90.2955 1066.3 90.5057 1066.4 90.6875H1066.53V89.2727H1068.19V98.1932C1068.19 98.9432 1068.02 99.5587 1067.67 100.04C1067.32 100.521 1066.85 100.877 1066.25 101.108C1065.66 101.339 1065 101.455 1064.25 101.455ZM1064.24 96.4602C1064.73 96.4602 1065.14 96.3466 1065.48 96.1193C1065.82 95.8883 1066.07 95.5587 1066.25 95.1307C1066.43 94.6989 1066.52 94.1818 1066.52 93.5795C1066.52 92.9924 1066.43 92.4754 1066.25 92.0284C1066.08 91.5814 1065.82 91.233 1065.49 90.983C1065.15 90.7292 1064.73 90.6023 1064.24 90.6023C1063.73 90.6023 1063.3 90.7348 1062.96 91C1062.62 91.2614 1062.36 91.6174 1062.19 92.0682C1062.02 92.5189 1061.93 93.0227 1061.93 93.5795C1061.93 94.1515 1062.02 94.6534 1062.19 95.0852C1062.37 95.517 1062.62 95.8542 1062.96 96.0966C1063.31 96.339 1063.73 96.4602 1064.24 96.4602Z" fill="black"/>
<defs>
<clipPath id="clip0_248_2041">
<rect width="48" height="48" fill="white" transform="translate(56 24)"/>
</clipPath>
<clipPath id="clip1_248_2041">
<rect width="48" height="48" fill="white" transform="translate(248 24)"/>
</clipPath>
<clipPath id="clip2_248_2041">
<rect width="48" height="48" fill="white" transform="translate(440 24)"/>
</clipPath>
<clipPath id="clip3_248_2041">
<rect width="48" height="48" fill="white" transform="translate(632 24)"/>
</clipPath>
<clipPath id="clip4_248_2041">
<rect width="48" height="48" fill="white" transform="translate(824 24)"/>
</clipPath>
<clipPath id="clip5_248_2041">
<rect width="48" height="48" fill="white" transform="translate(1016 24)"/>
</clipPath>
</defs>
</svg>
